<?xml version="1.0" standalone="no"?>
<!DOCTYPE svg PUBLIC "-//W3C//DTD SVG 20010904//EN"
 "http://www.w3.org/TR/2001/REC-SVG-20010904/DTD/svg10.dtd">
<svg version="1.0" xmlns="http://www.w3.org/2000/svg"
 width="600.000000pt" height="600.000000pt" viewBox="0 0 600.000000 600.000000"
 preserveAspectRatio="xMidYMid meet">
<metadata>
Created by potrace 1.14, written by Peter Selinger 2001-2017
</metadata>
<g transform="translate(0.000000,600.000000) scale(0.100000,-0.100000)"
fill="#000000" stroke="none">
<path d="M0 3000 l0 -3000 3000 0 3000 0 0 3000 0 3000 -3000 0 -3000 0 0
-3000z m3665 1321 c85 -39 125 -103 125 -202 0 -75 -19 -118 -72 -164 -134
-114 -343 -29 -356 144 -5 72 10 121 51 168 61 70 168 93 252 54z m-1109 -25
c114 -53 155 -181 97 -297 -40 -77 -102 -114 -192 -114 -72 1 -108 15 -155 61
-45 46 -60 83 -60 155 0 53 5 74 27 111 57 98 177 133 283 84z m2177 -396 c21
-14 50 -43 65 -64 24 -35 27 -49 30 -143 4 -99 3 -105 -25 -156 -17 -28 -49
-115 -73 -192 -73 -238 -157 -462 -213 -568 -70 -133 -275 -450 -342 -527 -69
-79 -236 -233 -305 -280 -178 -121 -537 -239 -796 -261 -227 -19 -505 12 -715
81 -35 11 -127 52 -205 90 -124 62 -158 84 -295 198 -98 81 -187 166 -244 233
-49 57 -121 137 -158 177 -37 41 -91 108 -119 150 -28 43 -76 108 -106 147
-93 120 -129 218 -120 329 8 100 85 178 189 192 104 14 206 -53 235 -155 9
-32 34 -79 58 -111 24 -30 65 -89 93 -130 28 -41 86 -114 129 -161 44 -47 110
-120 148 -163 119 -134 264 -249 401 -317 340 -168 722 -169 1116 -3 131 55
161 77 287 202 81 80 119 129 214 278 64 100 133 213 152 252 44 87 169 446
226 647 48 168 56 189 97 226 52 49 82 59 164 57 61 -3 82 -8 112 -28z"/>
</g>
</svg>
